# Blender 4.2.5 LTS
# www.blender.org
mtllib icosphere.mtl
o Icosphere
v 0.076347 -1.805277 0.234967
v 1.319350 -0.986130 0.779054
v -0.199876 -1.805277 0.145218
v -0.199876 -1.805277 -0.145218
v 0.076347 -1.805277 -0.234967
v 1.472045 -0.739066 0.779054
v -0.286039 -0.739068 1.640738
v -1.648830 -0.739062 0.234968
v -0.732981 -0.739068 -1.495519
v 1.195822 -0.739068 -1.159245
v 1.395700 -0.586373 1.014025
v -0.533103 -0.586373 1.640740
v -1.725177 -0.586368 0.000000
v -0.533103 -0.586374 -1.640740
v 1.395700 -0.586373 -1.014025
v 0.609448 0.986131 1.405766
v -1.148636 0.986131 1.014023
v -1.319350 0.986130 -0.779054
v 0.333222 0.986132 -1.495516
v 1.525298 0.986124 -0.145218
v 0.199876 1.805277 -0.145218
v 0.699471 1.667070 -0.161304
v 1.178253 1.371168 -0.161305
v 0.425058 1.739389 -0.308822
v 0.369555 1.667072 -0.615387
v 0.937393 1.516745 -0.323843
v 0.889173 1.438729 -0.646022
v 0.597660 1.516748 -0.791438
v 0.517504 1.371173 -1.070735
v 1.365658 1.158069 -0.308823
v 1.325795 1.076087 -0.615389
v 1.089324 1.212885 -0.791440
v 0.994962 1.076090 -1.070737
v 0.715716 1.158075 -1.203383
v 0.609448 0.986131 -1.405766
v -0.076347 1.805277 -0.234967
v 0.062734 1.667072 -0.715077
v 0.210682 1.371173 -1.170426
v -0.162360 1.739390 -0.499683
v -0.471071 1.667072 -0.541631
v -0.018329 1.516749 -0.991582
v -0.339639 1.438731 -1.045282
v -0.568018 1.516748 -0.812974
v -0.858414 1.371173 -0.823050
v 0.128294 1.158075 -1.394245
v -0.175586 1.076092 -1.451067
v -0.416091 1.212888 -1.280573
v -0.710878 1.076092 -1.277137
v -0.923320 1.158075 -1.052549
v -1.148636 0.986131 -1.014023
v -0.247060 1.805277 0.000000
v -0.660695 1.667072 -0.280636
v -1.048038 1.371172 -0.562054
v -0.525401 1.739389 0.000000
v -0.660695 1.667072 0.280636
v -0.948716 1.516747 -0.288987
v -1.099079 1.438729 0.000000
v -0.948716 1.516747 0.288987
v -1.048038 1.371172 0.562054
v -1.286362 1.158074 -0.552862
v -1.434307 1.076089 -0.281417
v -1.346479 1.212885 0.000000
v -1.434307 1.076089 0.281417
v -1.286362 1.158074 0.552862
v -1.319350 0.986130 0.779054
v -0.076347 1.805277 0.234967
v -0.471071 1.667072 0.541631
v -0.858414 1.371173 0.823050
v -0.162360 1.739390 0.499683
v 0.062734 1.667072 0.715077
v -0.568018 1.516749 0.812974
v -0.339639 1.438731 1.045281
v -0.018329 1.516749 0.991582
v 0.210682 1.371173 1.170426
v -0.923320 1.158075 1.052549
v -0.710878 1.076091 1.277137
v -0.416091 1.212888 1.280573
v -0.175586 1.076092 1.451067
v 0.128294 1.158075 1.394245
v 0.333222 0.986132 1.495516
v 0.199876 1.805277 0.145218
v 0.369555 1.667072 0.615387
v 0.517504 1.371173 1.070735
v 0.425058 1.739389 0.308822
v 0.699471 1.667070 0.161304
v 0.597660 1.516748 0.791438
v 0.889173 1.438729 0.646022
v 0.937393 1.516745 0.323843
v 1.178253 1.371168 0.161305
v 0.715716 1.158075 1.203383
v 0.994962 1.076090 1.070737
v 1.089324 1.212885 0.791440
v 1.325795 1.076087 0.615389
v 1.365658 1.158069 0.308823
v 1.525298 0.986124 0.145218
v 1.648830 0.739062 -0.234968
v 1.701743 0.324198 -0.541634
v 1.610305 -0.154590 -0.823053
v 1.628364 0.632664 -0.499685
v 1.463012 0.801657 -0.715080
v 1.610643 0.170258 -0.812979
v 1.438724 0.339641 -1.045288
v 1.364809 0.661925 -0.991587
v 1.132180 0.801660 -1.170430
v 1.448729 -0.307945 -1.052554
v 1.280391 -0.154590 -1.277144
v 1.270912 0.170258 -1.280581
v 1.040996 0.324200 -1.451075
v 0.978423 0.632668 -1.394251
v 0.732980 0.739068 -1.495519
v 0.286039 0.739068 -1.640738
v 0.010734 0.324200 -1.785827
v -0.285165 -0.154590 -1.785828
v 0.027953 0.632668 -1.703076
v -0.227997 0.801660 -1.612376
v -0.275481 0.170258 -1.783036
v -0.549545 0.339641 -1.691317
v -0.521315 0.661927 -1.604424
v -0.763290 0.801660 -1.438446
v -0.553361 -0.307946 -1.703079
v -0.818977 -0.154591 -1.612382
v -0.825176 0.170258 -1.604428
v -1.058372 0.324200 -1.438451
v -1.023666 0.632668 -1.361380
v -1.195822 0.739068 -1.159245
v -1.472045 0.739066 -0.779054
v -1.695107 0.324198 -0.562055
v -1.786546 -0.154588 -0.280637
v -1.611085 0.632666 -0.552863
v -1.603917 0.801658 -0.281418
v -1.780897 0.170258 -0.288988
v -1.778358 0.339640 0.000000
v -1.686995 0.661925 0.000000
v -1.603916 0.801658 0.281418
v -1.790723 -0.307942 0.000000
v -1.786546 -0.154588 0.280637
v -1.780897 0.170258 0.288988
v -1.695107 0.324199 0.562056
v -1.611085 0.632666 0.552863
v -1.472045 0.739066 0.779054
v -1.195822 0.739068 1.159245
v -1.058372 0.324200 1.438450
v -0.818977 -0.154591 1.612382
v -1.023667 0.632668 1.361379
v -0.763290 0.801660 1.438446
v -0.825176 0.170258 1.604428
v -0.549546 0.339640 1.691317
v -0.521316 0.661926 1.604424
v -0.227997 0.801660 1.612376
v -0.553361 -0.307946 1.703079
v -0.285165 -0.154591 1.785828
v -0.275481 0.170258 1.783036
v 0.010734 0.324199 1.785827
v 0.027952 0.632667 1.703076
v 0.286039 0.739068 1.640738
v 0.732980 0.739068 1.495519
v 1.040996 0.324199 1.451075
v 1.280390 -0.154591 1.277145
v 0.978423 0.632667 1.394251
v 1.132180 0.801659 1.170431
v 1.270911 0.170256 1.280581
v 1.438723 0.339638 1.045289
v 1.364809 0.661924 0.991588
v 1.463012 0.801656 0.715081
v 1.448729 -0.307946 1.052554
v 1.610305 -0.154591 0.823054
v 1.610643 0.170255 0.812980
v 1.701742 0.324197 0.541634
v 1.628364 0.632663 0.499686
v 1.648830 0.739062 0.234968
v 0.533103 0.586373 -1.640740
v 0.818977 0.154590 -1.612382
v 1.058372 -0.324200 -1.438450
v 0.553361 0.307945 -1.703079
v 0.285166 0.154590 -1.785828
v 0.825176 -0.170259 -1.604428
v 0.549546 -0.339642 -1.691317
v 0.275481 -0.170258 -1.783035
v -0.010734 -0.324200 -1.785827
v 1.023667 -0.632668 -1.361379
v 0.763290 -0.801661 -1.438446
v 0.521316 -0.661927 -1.604424
v 0.227997 -0.801661 -1.612376
v -0.027952 -0.632668 -1.703076
v -0.286039 -0.739068 -1.640738
v -1.395700 0.586373 -1.014025
v -1.280390 0.154590 -1.277145
v -1.040995 -0.324200 -1.451076
v -1.448728 0.307945 -1.052554
v -1.610304 0.154590 -0.823054
v -1.270911 -0.170258 -1.280582
v -1.438722 -0.339641 -1.045290
v -1.610642 -0.170258 -0.812980
v -1.701742 -0.324198 -0.541635
v -0.978422 -0.632668 -1.394252
v -1.132179 -0.801660 -1.170431
v -1.364807 -0.661925 -0.991589
v -1.463012 -0.801657 -0.715081
v -1.628363 -0.632664 -0.499687
v -1.648830 -0.739062 -0.234968
v -1.395700 0.586373 1.014025
v -1.610304 0.154590 0.823054
v -1.701742 -0.324198 0.541635
v -1.448728 0.307945 1.052554
v -1.280390 0.154590 1.277145
v -1.610642 -0.170258 0.812980
v -1.438722 -0.339641 1.045291
v -1.270910 -0.170258 1.280582
v -1.040995 -0.324200 1.451076
v -1.628363 -0.632664 0.499687
v -1.463012 -0.801657 0.715081
v -1.364807 -0.661925 0.991589
v -1.132179 -0.801660 1.170431
v -0.978422 -0.632668 1.394252
v -0.732980 -0.739068 1.495519
v 0.533103 0.586373 1.640740
v 0.285165 0.154590 1.785828
v -0.010734 -0.324200 1.785827
v 0.553361 0.307945 1.703079
v 0.818977 0.154590 1.612382
v 0.275481 -0.170258 1.783036
v 0.549546 -0.339642 1.691317
v 0.825176 -0.170259 1.604428
v 1.058372 -0.324200 1.438450
v -0.027952 -0.632668 1.703076
v 0.227997 -0.801661 1.612376
v 0.521316 -0.661927 1.604424
v 0.763290 -0.801661 1.438446
v 1.023667 -0.632668 1.361379
v 1.195822 -0.739068 1.159245
v 1.725177 0.586368 0.000000
v 1.786546 0.154589 0.280637
v 1.695107 -0.324199 0.562055
v 1.790723 0.307943 -0.000000
v 1.786545 0.154589 -0.280637
v 1.780897 -0.170258 0.288988
v 1.778358 -0.339640 0.000000
v 1.780897 -0.170258 -0.288988
v 1.695107 -0.324199 -0.562055
v 1.611085 -0.632666 0.552863
v 1.603917 -0.801658 0.281417
v 1.686995 -0.661924 -0.000000
v 1.603916 -0.801658 -0.281417
v 1.611085 -0.632666 -0.552863
v 1.472045 -0.739066 -0.779054
v 1.148636 -0.986131 -1.014023
v 0.858414 -1.371173 -0.823050
v 0.471071 -1.667072 -0.541632
v 0.923320 -1.158075 -1.052550
v 0.710878 -1.076091 -1.277138
v 0.568018 -1.516748 -0.812976
v 0.339638 -1.438729 -1.045284
v 0.416091 -1.212887 -1.280574
v 0.175586 -1.076091 -1.451068
v 0.162360 -1.739389 -0.499684
v -0.062734 -1.667072 -0.715078
v 0.018328 -1.516748 -0.991584
v -0.210683 -1.371172 -1.170427
v -0.128294 -1.158075 -1.394246
v -0.333222 -0.986132 -1.495516
v -0.609448 -0.986131 -1.405766
v -0.517505 -1.371173 -1.070735
v -0.369555 -1.667072 -0.615387
v -0.715716 -1.158075 -1.203383
v -0.994963 -1.076090 -1.070737
v -0.597662 -1.516748 -0.791437
v -0.889175 -1.438728 -0.646021
v -1.089326 -1.212885 -0.791438
v -1.325796 -1.076087 -0.615388
v -0.425059 -1.739389 -0.308822
v -0.699471 -1.667070 -0.161304
v -0.937394 -1.516745 -0.323842
v -1.178254 -1.371167 -0.161304
v -1.365658 -1.158069 -0.308823
v -1.525298 -0.986124 -0.145218
v -1.525298 -0.986124 0.145218
v -1.178254 -1.371167 0.161305
v -0.699471 -1.667069 0.161305
v -1.365658 -1.158069 0.308823
v -1.325796 -1.076087 0.615389
v -0.937394 -1.516744 0.323844
v -0.889175 -1.438727 0.646023
v -1.089326 -1.212884 0.791440
v -0.994963 -1.076090 1.070738
v -0.425059 -1.739389 0.308823
v -0.369555 -1.667072 0.615388
v -0.597662 -1.516747 0.791439
v -0.517505 -1.371172 1.070736
v -0.715716 -1.158074 1.203384
v -0.609448 -0.986131 1.405766
v 1.319350 -0.986130 -0.779054
v 1.434308 -1.076089 -0.281417
v 1.434308 -1.076088 0.281418
v 1.286362 -1.158074 -0.552862
v 1.048038 -1.371172 -0.562054
v 1.346480 -1.212885 0.000001
v 1.099081 -1.438728 0.000001
v 0.948717 -1.516747 -0.288986
v 0.660695 -1.667071 -0.280636
v 1.286363 -1.158073 0.552863
v 1.048039 -1.371172 0.562054
v 0.948717 -1.516746 0.288988
v 0.660695 -1.667071 0.280636
v 0.525402 -1.739389 0.000000
v 0.247060 -1.805277 0.000000
v -0.333222 -0.986132 1.495516
v -0.210682 -1.371173 1.170426
v -0.062733 -1.667072 0.715078
v -0.128293 -1.158075 1.394246
v 0.175587 -1.076091 1.451067
v 0.018330 -1.516748 0.991583
v 0.339641 -1.438729 1.045283
v 0.416092 -1.212887 1.280573
v 0.710878 -1.076091 1.277138
v 0.162361 -1.739389 0.499684
v 0.471072 -1.667072 0.541632
v 0.568020 -1.516747 0.812975
v 0.858415 -1.371172 0.823050
v 0.923321 -1.158074 1.052549
v 1.148636 -0.986131 1.014023
vn -0.0823 -0.9639 0.2534
vn 0.6011 -0.6693 0.4367
vn 0.8166 -0.5047 0.2801
vn -0.2664 -0.9639 -0.0000
vn -0.0823 -0.9639 -0.2534
vn -0.0000 -1.0000 -0.0000
vn 0.8675 -0.2383 0.4367
vn -0.0141 -0.5047 0.8632
vn -0.1473 -0.2383 0.9600
vn -0.8253 -0.5047 0.2534
vn -0.9585 -0.2383 0.1566
vn -0.4960 -0.5047 -0.7066
vn -0.4451 -0.2383 -0.8632
vn 0.5188 -0.5047 -0.6901
vn 0.6834 -0.2383 -0.6901
vn 0.7236 -0.4472 0.5257
vn 0.7236 -0.4472 -0.5257
vn 0.4960 0.5047 0.7066
vn -0.5188 0.5047 0.6901
vn -0.8166 0.5047 -0.2801
vn 0.0141 0.5047 -0.8632
vn 0.8253 0.5047 -0.2534
vn 0.2664 0.9639 -0.0000
vn 0.0823 0.9639 -0.2534
vn 0.6247 0.7318 -0.2725
vn 0.1625 0.8507 -0.5000
vn 0.4522 0.7318 -0.5099
vn -0.1433 0.8860 -0.4410
vn 0.2764 0.4472 -0.8506
vn -0.2155 0.9639 -0.1566
vn -0.0662 0.7318 -0.6783
vn -0.4253 0.8507 -0.3090
vn 0.2296 0.6693 -0.7066
vn 0.3751 0.8860 -0.2725
vn -0.3452 0.7318 -0.5877
vn -0.4637 0.8860 -0.0000
vn -0.7236 0.4472 -0.5257
vn -0.2155 0.9639 0.1566
vn -0.0000 1.0000 -0.0000
vn -0.6656 0.7318 -0.1467
vn -0.4253 0.8507 0.3090
vn -0.6011 0.6693 -0.4367
vn -0.6656 0.7318 0.1467
vn -0.1433 0.8860 0.4410
vn -0.7236 0.4472 0.5257
vn 0.0823 0.9639 0.2534
vn -0.3452 0.7318 0.5877
vn 0.1625 0.8507 0.5000
vn -0.6011 0.6693 0.4367
vn -0.0662 0.7318 0.6783
vn 0.3751 0.8860 0.2725
vn 0.2764 0.4472 0.8506
vn 0.4522 0.7318 0.5099
vn 0.2296 0.6693 0.7066
vn 0.7430 0.6693 -0.0000
vn 0.6247 0.7318 0.2725
vn 0.8565 0.2681 -0.4410
vn 0.5257 0.8507 -0.0000
vn 0.9585 0.2383 -0.1566
vn 0.8089 0.0185 -0.5877
vn 0.6841 0.2681 -0.6784
vn -0.1547 0.2681 -0.9509
vn 0.6882 0.5257 -0.5000
vn 0.1473 0.2383 -0.9600
vn -0.3090 0.0185 -0.9509
vn 0.4960 0.5047 -0.7066
vn -0.4338 0.2681 -0.8602
vn -0.9522 0.2681 -0.1467
vn -0.2629 0.5257 -0.8090
vn -0.8675 0.2383 -0.4367
vn -0.9998 0.0185 -0.0000
vn -0.5188 0.5047 -0.6901
vn -0.9522 0.2681 0.1467
vn -0.4338 0.2681 0.8602
vn -0.8506 0.5257 -0.0000
vn -0.6834 0.2383 0.6901
vn -0.3090 0.0185 0.9509
vn -0.8166 0.5047 0.2801
vn -0.1547 0.2681 0.9509
vn 0.6841 0.2681 0.6784
vn -0.2629 0.5257 0.8090
vn 0.4451 0.2383 0.8632
vn 0.8089 0.0185 0.5877
vn 0.0141 0.5047 0.8632
vn 0.8565 0.2681 0.4410
vn 0.3090 -0.0185 -0.9509
vn 0.6882 0.5257 0.5000
vn 0.8944 0.4472 -0.0000
vn 0.4338 -0.2681 -0.8602
vn 0.5878 -0.0000 -0.8090
vn 0.8253 0.5047 0.2534
vn -0.1473 -0.2383 -0.9600
vn 0.1547 -0.2681 -0.9509
vn -0.8089 -0.0185 -0.5877
vn -0.0000 -0.0000 -1.0000
vn -0.6841 -0.2681 -0.6784
vn -0.5878 -0.0000 -0.8090
vn 0.4451 0.2383 -0.8632
vn -0.9585 -0.2383 -0.1566
vn -0.8565 -0.2681 -0.4410
vn -0.8089 -0.0185 0.5877
vn -0.9511 -0.0000 -0.3090
vn -0.8565 -0.2681 0.4410
vn -0.9511 -0.0000 0.3090
vn -0.6834 0.2383 -0.6901
vn -0.4451 -0.2383 0.8632
vn -0.6841 -0.2681 0.6784
vn 0.3090 -0.0185 0.9509
vn -0.5878 -0.0000 0.8090
vn 0.1547 -0.2681 0.9509
vn -0.0000 -0.0000 1.0000
vn -0.8675 0.2383 0.4367
vn 0.6834 -0.2383 0.6901
vn 0.4338 -0.2681 0.8602
vn 0.9998 -0.0185 -0.0000
vn 0.5878 -0.0000 0.8090
vn 0.9522 -0.2681 0.1467
vn 0.9511 -0.0000 0.3090
vn 0.1473 0.2383 0.9600
vn 0.8675 -0.2383 -0.4367
vn 0.9522 -0.2681 -0.1467
vn 0.3452 -0.7318 -0.5877
vn 0.9511 -0.0000 -0.3090
vn 0.6011 -0.6693 -0.4367
vn 0.1433 -0.8860 -0.4410
vn 0.9585 0.2383 0.1566
vn 0.0662 -0.7318 -0.6783
vn -0.4522 -0.7318 -0.5099
vn 0.2629 -0.5257 -0.8090
vn -0.2764 -0.4472 -0.8506
vn -0.3751 -0.8860 -0.2725
vn -0.1625 -0.8507 -0.5000
vn -0.0141 -0.5047 -0.8632
vn -0.8253 -0.5047 -0.2534
vn -0.6247 -0.7318 -0.2725
vn -0.6247 -0.7318 0.2725
vn -0.6882 -0.5257 -0.5000
vn -0.8944 -0.4472 -0.0000
vn -0.3751 -0.8860 0.2725
vn -0.5257 -0.8507 -0.0000
vn -0.2296 -0.6693 -0.7066
vn -0.4960 -0.5047 0.7066
vn -0.4522 -0.7318 0.5099
vn 0.6656 -0.7318 -0.1467
vn -0.6882 -0.5257 0.5000
vn -0.2764 -0.4472 0.8506
vn 0.6656 -0.7318 0.1467
vn 0.8506 -0.5257 -0.0000
vn -0.7430 -0.6693 -0.0000
vn 0.2155 -0.9639 -0.1566
vn 0.4637 -0.8860 -0.0000
vn 0.0662 -0.7318 0.6783
vn 0.4253 -0.8507 -0.3090
vn 0.1433 -0.8860 0.4410
vn -0.1625 -0.8507 0.5000
vn 0.8166 -0.5047 -0.2801
vn 0.2155 -0.9639 0.1566
vn 0.4253 -0.8507 0.3090
vn 0.3452 -0.7318 0.5877
vn 0.5188 -0.5047 0.6901
vn 0.2629 -0.5257 0.8090
vn -0.2296 -0.6693 0.7066
vt 0.263564 0.552979
vt 0.498298 0.417455
vt 0.498298 0.146407
vt 0.263564 0.010884
vt 0.028830 0.146408
vt 0.028830 0.417455
vt 0.726375 0.959587
vt 0.984157 0.772298
vt 0.885693 0.469257
vt 0.567057 0.469257
vt 0.468593 0.772298
s 0
f 3/1/1 1/2/1 315/3/1 308/4/1 286/5/1 285/6/1
f 2/1/2 320/2/2 319/3/2 318/4/2 301/5/2 300/6/2
f 6/1/3 2/2/3 300/3/3 293/4/3 241/5/3 240/6/3
f 4/1/4 3/2/4 285/3/4 278/4/4 271/5/4 270/6/4
f 5/1/5 4/2/5 270/3/5 263/4/5 256/5/5 255/6/5
f 1/7/6 3/8/6 4/9/6 5/10/6 305/11/6
f 11/1/7 6/2/7 240/3/7 233/4/7 166/5/7 165/6/7
f 7/1/8 306/2/8 309/3/8 310/4/8 226/5/8 225/6/8
f 12/1/9 7/2/9 225/3/9 218/4/9 151/5/9 150/6/9
f 8/1/10 276/2/10 279/3/10 280/4/10 211/5/10 210/6/10
f 13/1/11 8/2/11 210/3/11 203/4/11 136/5/11 135/6/11
f 9/1/12 261/2/12 264/3/12 265/4/12 196/5/12 195/6/12
f 14/1/13 9/2/13 195/3/13 188/4/13 121/5/13 120/6/13
f 10/1/14 246/2/14 249/3/14 250/4/14 181/5/14 180/6/14
f 15/1/15 10/2/15 180/3/15 173/4/15 106/5/15 105/6/15
f 230/7/16 320/8/16 2/9/16 6/10/16 11/11/16
f 245/7/17 291/8/17 246/9/17 10/10/17 15/11/17
f 16/1/18 156/2/18 159/3/18 160/4/18 91/5/18 90/6/18
f 17/1/19 141/2/19 144/3/19 145/4/19 76/5/19 75/6/19
f 18/1/20 126/2/20 129/3/20 130/4/20 61/5/20 60/6/20
f 19/1/21 111/2/21 114/3/21 115/4/21 46/5/21 45/6/21
f 20/1/22 96/2/22 99/3/22 100/4/22 31/5/22 30/6/22
f 21/1/23 81/2/23 84/3/23 85/4/23 22/5/23 24/6/23
f 36/1/24 21/2/24 24/3/24 25/4/24 37/5/24 39/6/24
f 23/1/25 30/2/25 31/3/25 32/4/25 27/5/25 26/6/25
f 37/1/26 25/2/26 28/3/26 29/4/26 38/5/26 41/6/26
f 27/1/27 32/2/27 33/3/27 34/4/27 29/5/27 28/6/27
f 37/1/28 41/2/28 42/3/28 43/4/28 40/5/28 39/6/28
f 110/7/29 171/8/29 111/9/29 19/10/29 35/11/29
f 51/1/30 36/2/30 39/3/30 40/4/30 52/5/30 54/6/30
f 38/1/31 45/2/31 46/3/31 47/4/31 42/5/31 41/6/31
f 52/1/32 40/2/32 43/3/32 44/4/32 53/5/32 56/6/32
f 38/1/33 29/2/33 34/3/33 35/4/33 19/5/33 45/6/33
f 22/1/34 26/2/34 27/3/34 28/4/34 25/5/34 24/6/34
f 42/1/35 47/2/35 48/3/35 49/4/35 44/5/35 43/6/35
f 52/1/36 56/2/36 57/3/36 58/4/36 55/5/36 54/6/36
f 125/7/37 186/8/37 126/9/37 18/10/37 50/11/37
f 66/1/38 51/2/38 54/3/38 55/4/38 67/5/38 69/6/38
f 66/7/39 81/8/39 21/9/39 36/10/39 51/11/39
f 53/1/40 60/2/40 61/3/40 62/4/40 57/5/40 56/6/40
f 67/1/41 55/2/41 58/3/41 59/4/41 68/5/41 71/6/41
f 53/1/42 44/2/42 49/3/42 50/4/42 18/5/42 60/6/42
f 57/1/43 62/2/43 63/3/43 64/4/43 59/5/43 58/6/43
f 67/1/44 71/2/44 72/3/44 73/4/44 70/5/44 69/6/44
f 140/7/45 201/8/45 141/9/45 17/10/45 65/11/45
f 81/1/46 66/2/46 69/3/46 70/4/46 82/5/46 84/6/46
f 68/1/47 75/2/47 76/3/47 77/4/47 72/5/47 71/6/47
f 82/1/48 70/2/48 73/3/48 74/4/48 83/5/48 86/6/48
f 68/1/49 59/2/49 64/3/49 65/4/49 17/5/49 75/6/49
f 72/1/50 77/2/50 78/3/50 79/4/50 74/5/50 73/6/50
f 82/1/51 86/2/51 87/3/51 88/4/51 85/5/51 84/6/51
f 155/7/52 216/8/52 156/9/52 16/10/52 80/11/52
f 83/1/53 90/2/53 91/3/53 92/4/53 87/5/53 86/6/53
f 83/1/54 74/2/54 79/3/54 80/4/54 16/5/54 90/6/54
f 23/1/55 89/2/55 94/3/55 95/4/55 20/5/55 30/6/55
f 87/1/56 92/2/56 93/3/56 94/4/56 89/5/56 88/6/56
f 97/1/57 101/2/57 102/3/57 103/4/57 100/5/57 99/6/57
f 22/1/58 85/2/58 88/3/58 89/4/58 23/5/58 26/6/58
f 96/1/59 231/2/59 234/3/59 235/4/59 97/5/59 99/6/59
f 98/1/60 105/2/60 106/3/60 107/4/60 102/5/60 101/6/60
f 102/1/61 107/2/61 108/3/61 109/4/61 104/5/61 103/6/61
f 112/1/62 116/2/62 117/3/62 118/4/62 115/5/62 114/6/62
f 31/1/63 100/2/63 103/3/63 104/4/63 33/5/63 32/6/63
f 111/1/64 171/2/64 174/3/64 175/4/64 112/5/64 114/6/64
f 113/1/65 120/2/65 121/3/65 122/4/65 117/5/65 116/6/65
f 33/1/66 104/2/66 109/3/66 110/4/66 35/5/66 34/6/66
f 117/1/67 122/2/67 123/3/67 124/4/67 119/5/67 118/6/67
f 127/1/68 131/2/68 132/3/68 133/4/68 130/5/68 129/6/68
f 46/1/69 115/2/69 118/3/69 119/4/69 48/5/69 47/6/69
f 126/1/70 186/2/70 189/3/70 190/4/70 127/5/70 129/6/70
f 128/1/71 135/2/71 136/3/71 137/4/71 132/5/71 131/6/71
f 48/1/72 119/2/72 124/3/72 125/4/72 50/5/72 49/6/72
f 132/1/73 137/2/73 138/3/73 139/4/73 134/5/73 133/6/73
f 142/1/74 146/2/74 147/3/74 148/4/74 145/5/74 144/6/74
f 61/1/75 130/2/75 133/3/75 134/4/75 63/5/75 62/6/75
f 141/1/76 201/2/76 204/3/76 205/4/76 142/5/76 144/6/76
f 143/1/77 150/2/77 151/3/77 152/4/77 147/5/77 146/6/77
f 63/1/78 134/2/78 139/3/78 140/4/78 65/5/78 64/6/78
f 147/1/79 152/2/79 153/3/79 154/4/79 149/5/79 148/6/79
f 157/1/80 161/2/80 162/3/80 163/4/80 160/5/80 159/6/80
f 76/1/81 145/2/81 148/3/81 149/4/81 78/5/81 77/6/81
f 156/1/82 216/2/82 219/3/82 220/4/82 157/5/82 159/6/82
f 158/1/83 165/2/83 166/3/83 167/4/83 162/5/83 161/6/83
f 78/1/84 149/2/84 154/3/84 155/4/84 80/5/84 79/6/84
f 162/1/85 167/2/85 168/3/85 169/4/85 164/5/85 163/6/85
f 172/1/86 176/2/86 177/3/86 178/4/86 175/5/86 174/6/86
f 91/1/87 160/2/87 163/3/87 164/4/87 93/5/87 92/6/87
f 170/7/88 231/8/88 96/9/88 20/10/88 95/11/88
f 173/1/89 180/2/89 181/3/89 182/4/89 177/5/89 176/6/89
f 106/1/90 173/2/90 176/3/90 172/4/90 108/5/90 107/6/90
f 93/1/91 164/2/91 169/3/91 170/4/91 95/5/91 94/6/91
f 113/1/92 179/2/92 184/3/92 185/4/92 14/5/92 120/6/92
f 177/1/93 182/2/93 183/3/93 184/4/93 179/5/93 178/6/93
f 187/1/94 191/2/94 192/3/94 193/4/94 190/5/94 189/6/94
f 112/1/95 175/2/95 178/3/95 179/4/95 113/5/95 116/6/95
f 188/1/96 195/2/96 196/3/96 197/4/96 192/5/96 191/6/96
f 121/1/97 188/2/97 191/3/97 187/4/97 123/5/97 122/6/97
f 108/1/98 172/2/98 174/3/98 171/4/98 110/5/98 109/6/98
f 128/1/99 194/2/99 199/3/99 200/4/99 13/5/99 135/6/99
f 192/1/100 197/2/100 198/3/100 199/4/100 194/5/100 193/6/100
f 202/1/101 206/2/101 207/3/101 208/4/101 205/5/101 204/6/101
f 127/1/102 190/2/102 193/3/102 194/4/102 128/5/102 131/6/102
f 203/1/103 210/2/103 211/3/103 212/4/103 207/5/103 206/6/103
f 136/1/104 203/2/104 206/3/104 202/4/104 138/5/104 137/6/104
f 123/1/105 187/2/105 189/3/105 186/4/105 125/5/105 124/6/105
f 143/1/106 209/2/106 214/3/106 215/4/106 12/5/106 150/6/106
f 207/1/107 212/2/107 213/3/107 214/4/107 209/5/107 208/6/107
f 217/1/108 221/2/108 222/3/108 223/4/108 220/5/108 219/6/108
f 142/1/109 205/2/109 208/3/109 209/4/109 143/5/109 146/6/109
f 218/1/110 225/2/110 226/3/110 227/4/110 222/5/110 221/6/110
f 151/1/111 218/2/111 221/3/111 217/4/111 153/5/111 152/6/111
f 138/1/112 202/2/112 204/3/112 201/4/112 140/5/112 139/6/112
f 158/1/113 224/2/113 229/3/113 230/4/113 11/5/113 165/6/113
f 222/1/114 227/2/114 228/3/114 229/4/114 224/5/114 223/6/114
f 232/1/115 236/2/115 237/3/115 238/4/115 235/5/115 234/6/115
f 157/1/116 220/2/116 223/3/116 224/4/116 158/5/116 161/6/116
f 233/1/117 240/2/117 241/3/117 242/4/117 237/5/117 236/6/117
f 166/1/118 233/2/118 236/3/118 232/4/118 168/5/118 167/6/118
f 153/1/119 217/2/119 219/3/119 216/4/119 155/5/119 154/6/119
f 98/1/120 239/2/120 244/3/120 245/4/120 15/5/120 105/6/120
f 237/1/121 242/2/121 243/3/121 244/4/121 239/5/121 238/6/121
f 247/1/122 251/2/122 252/3/122 253/4/122 250/5/122 249/6/122
f 97/1/123 235/2/123 238/3/123 239/4/123 98/5/123 101/6/123
f 246/1/124 291/2/124 294/3/124 295/4/124 247/5/124 249/6/124
f 248/1/125 255/2/125 256/3/125 257/4/125 252/5/125 251/6/125
f 168/1/126 232/2/126 234/3/126 231/4/126 170/5/126 169/6/126
f 252/1/127 257/2/127 258/3/127 259/4/127 254/5/127 253/6/127
f 262/1/128 266/2/128 267/3/128 268/4/128 265/5/128 264/6/128
f 181/1/129 250/2/129 253/3/129 254/4/129 183/5/129 182/6/129
f 260/7/130 261/8/130 9/9/130 14/10/130 185/11/130
f 263/1/131 270/2/131 271/3/131 272/4/131 267/5/131 266/6/131
f 256/1/132 263/2/132 266/3/132 262/4/132 258/5/132 257/6/132
f 183/1/133 254/2/133 259/3/133 260/4/133 185/5/133 184/6/133
f 198/1/134 269/2/134 274/3/134 275/4/134 200/5/134 199/6/134
f 267/1/135 272/2/135 273/3/135 274/4/135 269/5/135 268/6/135
f 277/1/136 281/2/136 282/3/136 283/4/136 280/5/136 279/6/136
f 196/1/137 265/2/137 268/3/137 269/4/137 198/5/137 197/6/137
f 275/7/138 276/8/138 8/9/138 13/10/138 200/11/138
f 278/1/139 285/2/139 286/3/139 287/4/139 282/5/139 281/6/139
f 271/1/140 278/2/140 281/3/140 277/4/140 273/5/140 272/6/140
f 258/1/141 262/2/141 264/3/141 261/4/141 260/5/141 259/6/141
f 213/1/142 284/2/142 289/3/142 290/4/142 215/5/142 214/6/142
f 282/1/143 287/2/143 288/3/143 289/4/143 284/5/143 283/6/143
f 292/1/144 296/2/144 297/3/144 298/4/144 295/5/144 294/6/144
f 211/1/145 280/2/145 283/3/145 284/4/145 213/5/145 212/6/145
f 290/7/146 306/8/146 7/9/146 12/10/146 215/11/146
f 293/1/147 300/2/147 301/3/147 302/4/147 297/5/147 296/6/147
f 241/1/148 293/2/148 296/3/148 292/4/148 243/5/148 242/6/148
f 273/1/149 277/2/149 279/3/149 276/4/149 275/5/149 274/6/149
f 248/1/150 299/2/150 304/3/150 305/4/150 5/5/150 255/6/150
f 297/1/151 302/2/151 303/3/151 304/4/151 299/5/151 298/6/151
f 307/1/152 311/2/152 312/3/152 313/4/152 310/5/152 309/6/152
f 247/1/153 295/2/153 298/3/153 299/4/153 248/5/153 251/6/153
f 308/1/154 315/2/154 316/3/154 317/4/154 312/5/154 311/6/154
f 286/1/155 308/2/155 311/3/155 307/4/155 288/5/155 287/6/155
f 243/1/156 292/2/156 294/3/156 291/4/156 245/5/156 244/6/156
f 303/1/157 316/2/157 315/3/157 1/4/157 305/5/157 304/6/157
f 301/1/158 318/2/158 317/3/158 316/4/158 303/5/158 302/6/158
f 312/1/159 317/2/159 318/3/159 319/4/159 314/5/159 313/6/159
f 228/1/160 314/2/160 319/3/160 320/4/160 230/5/160 229/6/160
f 226/1/161 310/2/161 313/3/161 314/4/161 228/5/161 227/6/161
f 288/1/162 307/2/162 309/3/162 306/4/162 290/5/162 289/6/162
