# Blender 5.0.0
# www.blender.org
mtllib Hypermania_SmokeMesh-lowpoly.mtl
o Smoke_01
v 0.454772 -0.111329 0.607475
v -0.612707 -0.499834 0.325288
v -1.277510 0.105176 -0.355966
v 1.077458 -0.276935 1.318592
v 2.392268 -0.136930 1.238286
v 1.187444 0.974509 1.191878
v 1.639827 0.052576 1.525747
v 1.526335 -0.874636 1.003031
v 2.093195 -0.580670 -0.021069
v 0.708468 -0.658828 0.179018
v 1.960338 1.114183 0.422813
v 2.522292 0.063521 0.533423
v 0.993122 1.940563 1.540788
v -0.203520 0.942156 0.526829
v 0.264521 2.376130 1.364374
v -0.303738 2.655140 0.661236
v 0.780639 3.328804 0.202952
v 1.843821 2.240584 1.030276
v 0.924562 2.979954 1.093985
v 2.126914 2.330522 0.109793
v 1.768981 2.996900 0.124375
v -0.635062 -0.911915 -1.020297
v -0.652721 -0.096584 -1.652078
v -0.253171 -1.086849 -0.384046
v 0.582124 -0.889854 -0.756554
v 0.593713 -0.403069 -1.541417
v -0.488373 1.336943 -0.298991
v 0.372218 0.216594 -1.695079
v -0.573974 0.523818 -1.587991
v 1.261773 -0.296950 -0.433630
v 1.493016 0.874138 -0.261492
v 0.867564 1.073176 -0.929221
v -0.057521 1.462549 -0.871778
v 0.719510 2.489570 -1.069688
v -0.102319 2.788369 -0.354059
v 1.811547 2.002201 -0.673446
vn -0.4376 -0.3572 0.8252
vn -0.5074 -0.4733 0.7201
vn -0.9898 0.0179 0.1416
vn -0.5141 -0.3248 0.7938
vn 0.7708 -0.1663 0.6150
vn 0.0408 -0.0252 0.9988
vn 0.0930 0.0257 0.9953
vn 0.0276 -0.9186 0.3941
vn 0.5842 -0.5929 -0.5542
vn -0.0082 -0.9593 0.2822
vn 0.9922 0.1053 0.0664
vn 0.9828 0.0535 -0.1766
vn 0.0831 -0.0515 0.9952
vn -0.6682 -0.0407 0.7429
vn -0.4598 0.2057 0.8639
vn -0.8195 0.4643 0.3359
vn -0.0517 0.9966 -0.0638
vn 0.7438 0.2035 0.6367
vn 0.0935 0.7502 0.6545
vn 0.9751 0.2036 -0.0874
vn 0.6314 0.7675 -0.1109
vn -0.4978 -0.7868 -0.3650
vn -0.5253 -0.2036 -0.8262
vn -0.1824 -0.9656 0.1854
vn 0.4300 -0.8780 -0.2104
vn 0.4869 -0.4233 -0.7640
vn -0.9300 0.3622 -0.0624
vn 0.3362 0.1749 -0.9254
vn -0.4790 0.4344 -0.7628
vn 0.6114 -0.4691 -0.6373
vn 0.7263 -0.1230 -0.6763
vn 0.4770 0.0518 -0.8774
vn -0.4489 0.4066 -0.7957
vn -0.0068 0.4285 -0.9035
vn -0.6598 0.6211 -0.4230
vn 0.7136 0.0442 -0.6991
vt 0.215621 0.243112
vt 0.057373 0.302364
vt 0.206688 0.093141
vt 0.255445 0.575625
vt 0.197259 0.677724
vt 0.203109 0.573108
vt 0.093285 0.692356
vt 0.214062 0.425897
vt 0.277529 0.441802
vt 0.322671 0.725849
vt 0.251527 0.709572
vt 0.341580 0.617146
vt 0.462280 0.845560
vt 0.954661 0.284301
vt 0.862768 0.520110
vt 0.823936 0.420145
vt 0.836557 0.154586
vt 0.754111 0.390643
vt 0.761825 0.533384
vt 0.961731 0.722672
vt 0.811949 0.735649
vt 0.892258 0.638654
vt 0.336686 0.194077
vt 0.295420 0.266617
vt 0.408941 0.315910
vt 0.353291 0.337943
vt 0.417345 0.153742
vt 0.505236 0.138163
vt 0.472457 0.270498
vt 0.667875 0.226885
vt 0.550830 0.410743
vt 0.632617 0.624133
vt 0.485295 0.659287
vt 0.734156 0.624502
vt 0.698797 0.714035
vt 0.362588 0.479831
vt 0.682975 0.446830
vt 0.052733 0.159555
vt 0.815071 0.596398
s 1
f 2/1/2 14/2/14 3/3/3
f 8/4/8 7/5/7 4/6/4
f 4/6/4 7/5/7 6/7/6
f 4/6/4 1/8/1 10/9/10
f 12/10/12 5/11/5 9/12/9
f 12/10/12 11/13/11 5/11/5
f 6/7/6 1/8/1 4/6/4
f 5/11/5 7/5/7 8/4/8
f 7/5/7 5/11/5 6/7/6
f 5/11/5 11/13/11 6/7/6
f 14/14/14 15/15/15 16/16/16
f 14/14/14 16/16/16 27/17/27
f 35/18/35 16/16/16 17/19/17
f 6/20/6 18/21/18 13/22/13
f 18/21/18 6/20/6 11/13/11
f 22/23/22 24/24/24 2/1/2
f 22/23/22 26/25/26 25/26/25
f 26/25/26 22/23/22 23/27/23
f 29/28/29 28/29/28 23/27/23
f 28/29/28 29/28/29 33/30/33
f 28/29/28 33/30/33 32/31/32
f 36/32/36 31/33/31 32/31/32
f 21/34/21 20/35/20 36/32/36
f 30/36/30 10/9/10 25/26/25
f 36/32/36 20/35/20 11/13/11
f 33/30/33 29/28/29 27/17/27
f 34/37/34 35/18/35 17/19/17
f 2/1/2 10/9/10 1/8/1
f 24/24/24 10/9/10 2/1/2
f 1/8/1 14/2/14 2/1/2
f 1/8/1 6/7/6 14/2/14
f 27/38/27 3/3/3 14/2/14
f 4/6/4 10/9/10 8/4/8
f 30/36/30 9/12/9 10/9/10
f 8/4/8 10/9/10 9/12/9
f 8/4/8 9/12/9 5/11/5
f 31/33/31 12/10/12 9/12/9
f 11/13/11 12/10/12 31/33/31
f 14/14/14 13/22/13 15/15/15
f 19/39/19 16/16/16 15/15/15
f 15/15/15 13/22/13 19/39/19
f 13/22/13 18/21/18 19/39/19
f 19/39/19 21/34/21 17/19/17
f 18/21/18 21/34/21 19/39/19
f 20/35/20 21/34/21 18/21/18
f 11/13/11 20/35/20 18/21/18
f 3/3/3 23/27/23 22/23/22
f 22/23/22 2/1/2 3/3/3
f 24/24/24 22/23/22 25/26/25
f 3/3/3 29/28/29 23/27/23
f 3/3/3 27/17/27 29/28/29
f 23/27/23 28/29/28 26/25/26
f 25/26/25 26/25/26 30/36/30
f 30/36/30 31/33/31 9/12/9
f 26/25/26 32/31/32 30/36/30
f 32/31/32 31/33/31 30/36/30
f 28/29/28 32/31/32 26/25/26
f 35/18/35 34/37/34 33/30/33
f 27/17/27 35/18/35 33/30/33
f 34/37/34 36/32/36 32/31/32
f 34/37/34 21/34/21 36/32/36
f 21/34/21 34/37/34 17/19/17
f 24/24/24 25/26/25 10/9/10
f 16/16/16 35/18/35 27/17/27
f 11/13/11 31/33/31 36/32/36
f 14/14/14 6/20/6 13/22/13
f 19/39/19 17/19/17 16/16/16
f 34/37/34 32/31/32 33/30/33
